<svg height="512" viewBox="0 0 48 48" width="512" xmlns="http://www.w3.org/2000/svg"><g id="Makeup"><path d="m47 25a13.93 13.93 0 0 1 -4.21 10h-19.58a14 14 0 1 1 23.79-10z" fill="#de4a8c"/><path d="m47 25a13.93 13.93 0 0 1 -4.21 10h-14a14 14 0 0 1 -2-22.57 14 14 0 0 1 20.21 12.57z" fill="#f26da6"/><path d="m45 37v2h-24v-2a2 2 0 0 1 2-2h20a2 2 0 0 1 2 2z" fill="#f6ccaf"/><path d="m45 37h-20a2 2 0 0 1 -2-2c0-.1-.89 0 20 0a2 2 0 0 1 2 2z" fill="#ffdec7"/><path d="m1 27h14v4h-14z" fill="#374f68"/><path d="m15 27v2h-10a2 2 0 0 1 -2-2z" fill="#425b72"/><path d="m15 31c0 14.13.05 13.25-.13 13.87a3 3 0 0 1 -2.87 2.13h-8a3 3 0 0 1 -3-3v-13z" fill="#374f68"/><path d="m15 31c0 14.13.05 13.25-.13 13.87a3.23 3.23 0 0 1 -.87.13 11 11 0 0 1 -11-11v-3z" fill="#425b72"/><path d="m3 17h10v10h-10z" fill="#374f68"/><path d="m13 17c0 8.55-.1 8 0 8a8 8 0 0 1 -8-8z" fill="#425b72"/><path d="m12 3.11v13.89h-8v-10.11c2.52-1.18.81-.37 8-3.78z" fill="#db5669"/><path d="m12 3.11v11.89h-4a2 2 0 0 1 -2-2v-7z" fill="#f26674"/><path d="m43 25a10 10 0 1 1 -13.95-9.18 10 10 0 0 1 13.95 9.18z" fill="#9fdbf3"/><path d="m43 25a10 10 0 0 1 -3 7.18 9.83 9.83 0 0 1 -4 .82 10 10 0 0 1 -6.95-17.18 10 10 0 0 1 13.95 9.18z" fill="#b2e5fb"/><path d="m11.85 4.13c-.94 3.49-5.51 6.07-7.28 4.3-1.36-1.36-.12-4 1.37-5.49 3.15-3.13 6.88-2.27 5.91 1.19z" fill="#db5669"/><path d="m11.85 4.13c-2.85 4.03-7.85 3.69-6.7-.26 2.85-3.98 7.85-3.72 6.7.26z" fill="#f26674"/><path d="m47 39c0 5.23.07 5.36-.18 6a3 3 0 0 1 -2.82 2h-22a3 3 0 0 1 -3-3v-5z" fill="#de4a8c"/><path d="m47 39c0 5.23.07 5.36-.18 6h-21.82a3 3 0 0 1 -3-3v-3z" fill="#f26da6"/><path d="m38 39-.62 2.49a2 2 0 0 1 -1.94 1.51h-4.88a2 2 0 0 1 -1.94-1.51l-.62-2.49z" fill="#de4a8c"/><path d="m38 39c-.53 2.11-.46 2-.56 2h-4.88a2 2 0 0 1 -1.94-1.51l-.12-.49z" fill="#f26da6"/></g></svg>