<svg id="_x3C_Layer_x3E_" height="512" viewBox="0 0 32 32" width="512" xmlns="http://www.w3.org/2000/svg"><g id="watches_x2C__wrist_watches_x2C__smart_watches_x2C__mobile_x2C__phone_x2C__smart_phone"><g><g><g><g><g><path d="m19.5 27.5c0 1.1-.9 2-2 2h-11c-1.1 0-2-.9-2-2v-24c0-1.1.9-2 2-2h11c1.1 0 2 .9 2 2z" fill="#73c2e6"/></g></g></g></g><path d="m5 18c0-8.06 6.447-14.67 14.438-14.971-.215-.874-1.001-1.529-1.938-1.529h-11c-1.1 0-2 .9-2 2v24c0 .5.193.954.5 1.306z" fill="#80d8ff"/><g><g><g><g><path d="m16.5 30h-10c-1.379 0-2.5-1.122-2.5-2.5v-24c0-1.378 1.121-2.5 2.5-2.5h11c1.379 0 2.5 1.122 2.5 2.5v3c0 .276-.224.5-.5.5s-.5-.224-.5-.5v-3c0-.827-.673-1.5-1.5-1.5h-11c-.827 0-1.5.673-1.5 1.5v24c0 .827.673 1.5 1.5 1.5h10c.276 0 .5.224.5.5s-.224.5-.5.5z" fill="#455a64"/></g></g></g></g><g fill="#455a64"><path d="m10.5 1.5h3v1h-3z"/><path d="m13.5 3h-3c-.276 0-.5-.224-.5-.5v-1c0-.276.224-.5.5-.5h3c.276 0 .5.224.5.5v1c0 .276-.224.5-.5.5zm-2.5-1h2z"/></g></g><g><g><path d="m28 18.5h1c.276 0 .5-.224.5-.5v-1c0-.276-.224-.5-.5-.5h-1c-.276 0 .5.224.5.5v1c0 .276-.776.5-.5.5z" fill="#cfd8dc"/><path d="m29 19h-1c-.228 0-.486-.167-.543-.388-.102-.392.248-.585.38-.658.038-.021.109-.061.163-.096v-.716c-.054-.035-.125-.075-.163-.096-.132-.073-.481-.266-.38-.658.057-.221.315-.388.543-.388h1c.552 0 1 .449 1 1v1c0 .551-.448 1-1 1zm0-1v.5z" fill="#455a64"/></g><path d="m19.326 29.716-.826-3.716h8l-.826 3.717c-.103.458-.508.783-.977.783l-4.395-.001c-.468 0-.874-.326-.976-.783z" fill="#eceff1"/><path d="m18.5 26 .223 1h1.667c2.019 0 3.58 1.598 3.681 3.5h.627c.469 0 .874-.326.977-.783l.825-3.717z" fill="#cfd8dc"/><path d="m24.697 31-4.395-.001c-.697 0-1.313-.494-1.465-1.174l-.96-4.325h9.246l-.961 4.325c-.155.692-.758 1.175-1.465 1.175zm-5.574-4.5.691 3.108c.05.227.256.391.488.391l4.395.001c.236 0 .437-.162.488-.393l.691-3.107z" fill="#455a64"/><path d="m19.326 9.284-.826 3.716h8l-.826-3.717c-.103-.457-.508-.783-.977-.783l-4.395.001c-.468 0-.874.326-.976.783z" fill="#eceff1"/><path d="m24.109 10h1.39l.667 3h.334l-.826-3.717c-.103-.457-.508-.783-.977-.783l-4.395.001c-.469 0-.875.325-.977.783l-.825 3.716h.583c.988-1.806 2.885-3 5.026-3z" fill="#fff"/><path d="m27.123 13.5h-9.246l.961-4.325c.151-.681.768-1.174 1.465-1.174l4.394-.001c.707 0 1.31.483 1.465 1.174zm-8-1h6.754l-.691-3.108c-.052-.23-.252-.392-.489-.392l-4.395.001c-.232 0-.438.165-.488.391z" fill="#455a64"/><path d="m26 26.5h-7c-1.381 0-2.5-1.119-2.5-2.5v-9c0-1.381 1.119-2.5 2.5-2.5h7c1.381 0 2.5 1.119 2.5 2.5v9c0 1.381-1.119 2.5-2.5 2.5z" fill="#455a64"/><path d="m17 23.5c0-5.247 4.253-9.5 9.5-9.5h1.789c-.386-.882-1.265-1.5-2.289-1.5h-7c-1.381 0-2.5 1.119-2.5 2.5v9c0 .559.189 1.07.5 1.486z" fill="#607d8b"/><path d="m26 27h-7c-1.654 0-3-1.346-3-3v-9c0-1.654 1.346-3 3-3h7c1.654 0 3 1.346 3 3v9c0 1.654-1.346 3-3 3zm-7-14c-1.103 0-2 .897-2 2v9c0 1.103.897 2 2 2h7c1.103 0 2-.897 2-2v-9c0-1.103-.897-2-2-2z" fill="#455a64"/></g></g></svg>