<svg id="Icons" height="512" viewBox="0 0 60 60" width="512" xmlns="http://www.w3.org/2000/svg"><path d="m44.08 39.53-2.66 9.03a1.992 1.992 0 0 1 -1.92 1.44h-19a1.992 1.992 0 0 1 -1.92-1.44l-2.66-9.03z" fill="#d19d2a"/><path d="m44.08 20.47-2.66-9.03a1.992 1.992 0 0 0 -1.92-1.44h-19a1.992 1.992 0 0 0 -1.92 1.44l-2.66 9.03z" fill="#d19d2a"/><path d="m22 15v-12a2.006 2.006 0 0 1 2-2h12a2.006 2.006 0 0 1 2 2v12z" fill="#6d4141"/><path d="m38 45v12a2.006 2.006 0 0 1 -2 2h-12a2.006 2.006 0 0 1 -2-2v-12z" fill="#6d4141"/><circle cx="30" cy="30" fill="#fff" r="17"/><path d="m46.53 34h2.47a2.006 2.006 0 0 0 2-2v-4a2.006 2.006 0 0 0 -2-2h-2.47z" fill="#d19d2a"/><g fill="#c9dceb"><path d="m30 20a1 1 0 0 1 -1-1v-2a1 1 0 0 1 2 0v2a1 1 0 0 1 -1 1z"/><path d="m22.222 23.222a1 1 0 0 1 -.707-.293l-1.415-1.414a1 1 0 0 1 1.415-1.415l1.414 1.414a1 1 0 0 1 -.707 1.707z"/><path d="m19 31h-2a1 1 0 0 1 0-2h2a1 1 0 0 1 0 2z"/><path d="m20.808 40.192a1 1 0 0 1 -.707-1.707l1.414-1.414a1 1 0 1 1 1.414 1.414l-1.414 1.415a1 1 0 0 1 -.707.292z"/><path d="m30 44a1 1 0 0 1 -1-1v-2a1 1 0 0 1 2 0v2a1 1 0 0 1 -1 1z"/><path d="m39.192 40.192a1 1 0 0 1 -.707-.293l-1.414-1.414a1 1 0 0 1 1.414-1.414l1.415 1.414a1 1 0 0 1 -.707 1.707z"/><path d="m43 31h-2a1 1 0 0 1 0-2h2a1 1 0 0 1 0 2z"/><path d="m37.778 23.222a1 1 0 0 1 -.707-1.707l1.414-1.415a1 1 0 0 1 1.415 1.415l-1.414 1.414a1 1 0 0 1 -.708.293z"/></g><path d="m30 30.99a1 1 0 0 1 -.914-.594l-4-8.99a1 1 0 1 1 1.828-.812l3.686 8.284 5.237-.864a1 1 0 1 1 .326 1.972l-6 .991a1 1 0 0 1 -.163.013z" fill="#282d60"/><path d="m30 48a18 18 0 1 1 18-18 18.021 18.021 0 0 1 -18 18zm0-34a16 16 0 1 0 16 16 16.019 16.019 0 0 0 -16-16z" fill="#e2b137"/><circle cx="30" cy="30" fill="#e2b137" r="2"/></svg>